<?xml version="1.0" encoding="UTF-8" standalone="no"?>
<svg
   xmlns:osb="http://www.openswatchbook.org/uri/2009/osb"
   xmlns:dc="http://purl.org/dc/elements/1.1/"
   xmlns:cc="http://creativecommons.org/ns#"
   xmlns:rdf="http://www.w3.org/1999/02/22-rdf-syntax-ns#"
   xmlns:svg="http://www.w3.org/2000/svg"
   xmlns="http://www.w3.org/2000/svg"
   xmlns:sodipodi="http://sodipodi.sourceforge.net/DTD/sodipodi-0.dtd"
   xmlns:inkscape="http://www.inkscape.org/namespaces/inkscape"
   version="1.1"
   viewBox="0 0 200 200"
   stroke-miterlimit="10"
   id="svg2635"
   sodipodi:docname="elvilogo.svg"
   inkscape:version="0.92.2 5c3e80d, 2017-08-06"
   width="200"
   height="200"
   style="fill:none;stroke:none;stroke-linecap:square;stroke-miterlimit:10">
  <metadata
     id="metadata2641">
    <rdf:RDF>
      <cc:Work
         rdf:about="">
        <dc:format>image/svg+xml</dc:format>
        <dc:type
           rdf:resource="http://purl.org/dc/dcmitype/StillImage" />
        <dc:title></dc:title>
      </cc:Work>
    </rdf:RDF>
  </metadata>
  <defs
     id="defs2639">
    <linearGradient
       id="linearGradient2278"
       osb:paint="solid">
      <stop
         style="stop-color:#000000;stop-opacity:1;"
         offset="0"
         id="stop2276" />
    </linearGradient>
    <linearGradient
       id="linearGradient6954"
       osb:paint="solid">
      <stop
         style="stop-color:#b57b00;stop-opacity:1;"
         offset="0"
         id="stop6952" />
    </linearGradient>
  </defs>
  <sodipodi:namedview
     pagecolor="#ffffff"
     bordercolor="#666666"
     borderopacity="1"
     objecttolerance="10"
     gridtolerance="10"
     guidetolerance="10"
     inkscape:pageopacity="0"
     inkscape:pageshadow="2"
     inkscape:window-width="1280"
     inkscape:window-height="710"
     id="namedview2637"
     showgrid="false"
     showborder="true"
     inkscape:zoom="2.485"
     inkscape:cx="100"
     inkscape:cy="110.29308"
     inkscape:window-x="0"
     inkscape:window-y="1"
     inkscape:window-maximized="1"
     inkscape:current-layer="svg2635"
     inkscape:pagecheckerboard="true"
     height="200px" />
  <clipPath
     id="p.0">
    <path
       d="M 0,0 H 1000 V 800 H 0 Z"
       id="path2614"
       inkscape:connector-curvature="0"
       style="clip-rule:nonzero" />
  </clipPath>
  <path
     style="color:#000000;font-style:normal;font-variant:normal;font-weight:normal;font-stretch:normal;font-size:medium;line-height:normal;font-family:sans-serif;font-variant-ligatures:normal;font-variant-position:normal;font-variant-caps:normal;font-variant-numeric:normal;font-variant-alternates:normal;font-feature-settings:normal;text-indent:0;text-align:start;text-decoration:none;text-decoration-line:none;text-decoration-style:solid;text-decoration-color:#000000;letter-spacing:normal;word-spacing:normal;text-transform:none;writing-mode:lr-tb;direction:ltr;text-orientation:mixed;dominant-baseline:auto;baseline-shift:baseline;text-anchor:start;white-space:normal;shape-padding:0;clip-rule:nonzero;display:inline;overflow:visible;visibility:visible;opacity:1;isolation:auto;mix-blend-mode:normal;color-interpolation:sRGB;color-interpolation-filters:linearRGB;solid-color:#000000;solid-opacity:1;vector-effect:none;fill:#ffffff;fill-opacity:1;fill-rule:evenodd;stroke:#ffffff;stroke-width:2.53091478;stroke-linecap:round;stroke-linejoin:round;stroke-miterlimit:10;stroke-dasharray:none;stroke-dashoffset:0;stroke-opacity:1;paint-order:normal;color-rendering:auto;image-rendering:auto;shape-rendering:auto;text-rendering:auto;enable-background:accumulate"
     d="m 97.508186,2.5382651 -1.731148,0.01552 -0.07136,0.0016 -1.727964,0.053552 -0.07081,0.00317 -1.724229,0.091032 -0.07081,0.00478 -1.719445,0.1285105 -0.07081,0.00648 -1.714652,0.165997 -0.07026,0.00742 -1.709326,0.2029393 -0.06972,0.00913 -1.704007,0.239888 -0.06918,0.010715 -1.697615,0.2768335 -0.06918,0.011786 -1.690163,0.3132466 -0.06863,0.013389 -1.683235,0.3491247 -0.06809,0.015 -1.675795,0.3855347 -0.06765,0.016613 -1.667274,0.4208739 -0.0671,0.018204 -1.658223,0.4567511 -0.06656,0.019286 -1.649181,0.4920937 -0.06601,0.020878 -1.639594,0.5274288 -0.06547,0.02197 -0.244884,0.084604 2.124556,6.2231651 0.229969,-0.07925 0.01537,-0.0053 1.545905,-0.496913 1.599134,-0.477098 0.01177,-0.0038 1.566126,-0.431049 1.57944,-0.398919 1.616171,-0.372149 1.599134,-0.331988 1.648114,-0.305749 1.639059,-0.2666622 1.615638,-0.2275736 1.642254,-0.1949066 1.649169,-0.1595703 1.652906,-0.123692 1.65503,-0.087277 1.634266,-0.050338 1.661949,-0.015521 1.687502,0.02197 1.665667,0.058369 1.64385,0.093706 1.67047,0.1322607 1.66887,0.1692052 1.66994,0.2072262 1.65024,0.2409576 1.68751,0.284868 1.67099,0.321277 1.66568,0.358225 1.65131,0.393568 1.68376,0.441223 1.64227,0.469601 1.66142,0.515115 1.42399,0.476568 2.0644,-6.2440532 -1.45117,-0.4851313 -0.0687,-0.02197 -1.72636,-0.5354617 -0.0693,-0.020878 -1.73009,-0.4942346 -0.0693,-0.019286 -1.73329,-0.4540737 -0.0704,-0.017674 -1.73541,-0.4139115 -0.0704,-0.016061 -1.73754,-0.3737559 -0.0709,-0.014459 -1.73912,-0.3341296 -0.0715,-0.012837 -1.74021,-0.2939707 -0.0714,-0.011256 -1.74072,-0.2548791 -0.0714,-0.00966 -1.74074,-0.2157917 -0.072,-0.00795 -1.7402,-0.1767043 -0.072,-0.00648 -1.73967,-0.1376127 -0.072,-0.00478 -1.73807,-0.099063 -0.0714,-0.00317 -1.736461,-0.0605 -0.07189,-0.0016 -1.733809,-0.02249 z m -45.037687,13.1354769 -0.790514,0.498517 -0.05697,0.0364 -1.467112,0.96812 -0.05589,0.03748 -1.450617,1.000248 -0.05534,0.03855 -1.433572,1.032911 -0.0538,0.03962 -0.265638,0.199729 3.916394,5.27004 0.232628,-0.174562 1.400046,-1.008812 0.01275,-0.0091 1.374491,-0.947237 1.416008,-0.933312 0.75059,-0.473351 z m 90.214841,0.233461 -3.4639,5.581684 0.25605,0.161173 1.41547,0.930637 1.42986,0.98365 1.38887,0.998638 0.67021,0.503872 3.9132,-5.272719 -0.7048,-0.529576 -0.0549,-0.03962 -1.44529,-1.039874 -0.0559,-0.03908 -1.46711,-1.00935 -0.0565,-0.03802 -1.48787,-0.97883 -0.0581,-0.03695 z m -110.740084,17.509151 -1.056151,1.247094 -0.04206,0.05087 -1.16581,1.433975 -0.04096,0.05141 -1.141329,1.463426 -0.04042,0.05247 -1.116831,1.492337 -0.03888,0.05355 -1.091827,1.521251 -0.0378,0.05409 -1.066804,1.550704 -0.03672,0.05409 -1.04018,1.579618 -0.03564,0.05462 -1.013566,1.608003 -0.03463,0.05569 -0.986952,1.635843 -0.03301,0.05622 -0.95607,1.657796 -0.03193,0.05675 -0.920935,1.672794 -0.03038,0.05676 -0.886336,1.687786 -0.02985,0.05729 -0.851203,1.701708 -0.02822,0.05783 -0.817138,1.714559 -0.02713,0.05837 -0.782007,1.727409 -0.02605,0.05836 -0.74793,1.740261 -0.0245,0.05836 -0.712797,1.75204 -0.02342,0.05835 -0.678722,1.763286 -0.02234,0.05892 -0.644124,1.77346 -0.02079,0.05892 -0.610056,1.783629 -0.01971,0.05892 -0.575459,1.793271 -0.01808,0.05891 -0.541391,1.80184 -0.01701,0.05944 -0.506784,1.809868 -0.01656,0.05997 -0.472184,1.817365 -0.01492,0.05997 -0.438643,1.824864 -0.01329,0.05944 -0.404586,1.831288 -0.01221,0.05997 -0.3699684,1.837178 -0.011756,0.05997 -0.3359111,1.84307 -0.010128,0.05944 -0.00361,0.02249 4.4354205,0.733052 2.012752,0.371078 0.0073,-0.03748 4.98e-4,-0.0021 0.325782,-1.789524 0.0027,-0.01338 0.353473,-1.753649 0.391798,-1.772922 0.42214,-1.759536 0.463131,-1.778812 0.0018,-0.007 0.479101,-1.710271 0.52914,-1.760606 0.553627,-1.725267 0.589828,-1.724193 0.628161,-1.729015 0.0055,-0.01552 0.646789,-1.678147 0.685116,-1.68243 0.721841,-1.680286 0.764967,-1.689926 0.783597,-1.643343 0.821399,-1.641196 0.865572,-1.648159 0.0082,-0.01501 0.873559,-1.585512 0.939575,-1.629417 9.03e-4,-0.0021 0.929989,-1.5416 0.99653,-1.579085 0.0073,-0.01123 0.968314,-1.46985 0.0055,-0.0074 1.046575,-1.522324 1.049232,-1.461818 1.073723,-1.435045 1.10672,-1.418441 1.131743,-1.39221 0.01176,-0.01446 1.013567,-1.196229 z m 131.167914,0.340555 -4.96614,4.282644 0.5547,0.650587 1.10671,1.351515 0.008,0.01019 1.05348,1.338661 1.05724,1.398634 0.0117,0.01552 1.00131,1.379353 1.00612,1.44308 0.96353,1.439862 0.95395,1.485913 0.91187,1.482165 0.89328,1.514293 0.87141,1.544282 0.83313,1.544815 0.82244,1.595684 0.006,0.01229 0.75483,1.535176 0.004,0.01019 0.74952,1.59836 0.005,0.01179 0.72024,1.613892 0.005,0.01338 0.7064,1.668508 0.65158,1.620317 0.005,0.01606 0.64359,1.691531 0.6042,1.684569 0.58025,1.716701 0.54352,1.713486 0.51583,1.737047 0.48177,1.742935 0.4594,1.789524 0.002,0.0091 0.40988,1.733831 0.39448,1.81576 0.004,0.01446 0.34708,1.757396 0.32739,1.837175 0.004,0.02624 6.45883,-1.039335 -0.0107,-0.06962 -0.0107,-0.06105 -0.33378,-1.872519 -0.0111,-0.06105 -0.36786,-1.860738 -0.0128,-0.0605 -0.40137,-1.848426 -0.0134,-0.0605 -0.43491,-1.835573 -0.015,-0.05997 -0.4674,-1.822183 -0.0161,-0.05997 -0.5004,-1.808799 -0.017,-0.05944 -0.53235,-1.794342 -0.0181,-0.0589 -0.5648,-1.779885 -0.0192,-0.05891 -0.59622,-1.764891 -0.0209,-0.05835 -0.62763,-1.749363 -0.0213,-0.05783 -0.65902,-1.733295 -0.0224,-0.05783 -0.68991,-1.716701 -0.0234,-0.05729 -0.72026,-1.7001 -0.0245,-0.05677 -0.75058,-1.682429 -0.0255,-0.05676 -0.7804,-1.664756 -0.0266,-0.05569 -0.80967,-1.646553 -0.0281,-0.05569 -0.83895,-1.627812 -0.0288,-0.05461 -0.86771,-1.608535 -0.0303,-0.05462 -0.89645,-1.589255 -0.0308,-0.05409 -0.92466,-1.568377 -0.0325,-0.05354 -0.95236,-1.548563 -0.0335,-0.05302 -0.98003,-1.527144 -0.0346,-0.05247 -1.0077,-1.505726 -0.0356,-0.05193 -1.03435,-1.48377 -0.0367,-0.05141 -1.06147,-1.461283 -0.0378,-0.05087 -1.08756,-1.438257 -0.0389,-0.05034 -1.11365,-1.4147 -0.04,-0.04979 -1.13973,-1.391137 -0.041,-0.04927 z M 2.0876326,93.45262 v 21.64776 H 23.608879 v -7.52917 h 52.454185 v -6.57978 H 23.608879 v -7.53881 z m 173.9272174,0 v 7.53881 h -52.95351 v 6.57978 h 52.95351 v 7.52917 h 21.52072 V 93.45262 Z m -79.809814,7.53881 v 6.57978 h 6.713814 v -6.57978 z m -78.116466,26.3502 -6.292739,1.79594 0.147992,0.52477 0.01701,0.0583 0.538724,1.78255 0.01808,0.0583 0.571732,1.77238 0.01917,0.0583 0.604729,1.76167 0.0208,0.0584 0.637738,1.75043 0.0218,0.0584 0.670737,1.73812 0.02287,0.0583 0.703745,1.72633 0.02396,0.0573 0.736754,1.71349 0.02505,0.0578 0.769754,1.69955 0.02659,0.0573 0.802224,1.68618 0.02768,0.0568 0.835233,1.67119 0.0293,0.0568 0.867708,1.65565 0.0303,0.0568 0.900706,1.64012 0.03139,0.0562 0.933725,1.62353 0.03247,0.0557 0.966181,1.60692 0.03409,0.0552 0.998662,1.58978 0.03508,0.0546 1.031128,1.57159 0.03671,0.0541 1.063603,1.55285 0.03779,0.0541 1.096611,1.53356 0.03888,0.053 1.129085,1.51376 0.03997,0.053 1.16155,1.49341 0.04151,0.0521 1.189239,1.46717 0.04258,0.0515 1.21212,1.43451 0.04368,0.0509 1.235027,1.40239 0.04467,0.0499 1.256849,1.37025 0.0463,0.0487 1.278136,1.33759 0.04739,0.0482 1.299432,1.30492 0.04793,0.0471 1.320188,1.27227 0.04901,0.0465 1.137068,1.05164 4.427436,-4.84381 -1.107798,-1.02434 -1.276,-1.22944 -1.256314,-1.26154 -1.223841,-1.28083 -1.216911,-1.32582 -1.183914,-1.34454 -1.173804,-1.389 -1.164218,-1.43664 -0.0046,-0.005 -1.100337,-1.41577 -1.094485,-1.4677 -1.053492,-1.4736 -1.035387,-1.51107 -0.0082,-0.0129 -0.983225,-1.4993 -0.953946,-1.51857 -0.942766,-1.56784 -0.899114,-1.56464 -0.868234,-1.58123 -0.842683,-1.60799 -0.0082,-0.0156 -0.792648,-1.58659 -0.774544,-1.62729 -0.748464,-1.65403 -0.71173,-1.65673 -0.676606,-1.65886 -0.648383,-1.68137 -0.61325,-1.68404 -0.57705,-1.67921 -0.0055,-0.0167 -0.547766,-1.69689 -0.0036,-0.009 -0.527013,-1.744 z m 41.463591,53.77562 -3.223824,5.72518 0.213465,0.12209 0.06013,0.0331 1.539512,0.83532 0.06068,0.0315 1.553347,0.80106 0.06122,0.0305 1.566127,0.76626 0.06176,0.0294 0.962471,0.44606 2.736729,-5.97631 -0.923069,-0.42786 -1.50438,-0.73572 -1.470304,-0.75715 -0.01176,-0.006 -1.488944,-0.80692 z m 72.362439,1.74882 -1.60445,0.77962 -1.58902,0.72987 -1.57625,0.68271 -1.63213,0.66504 -0.0117,0.004 -1.57039,0.5992 -1.59595,0.57025 -1.62893,0.54245 -1.62045,0.50012 -1.63853,0.46638 -1.63054,0.4257 -1.63959,0.38928 -1.61563,0.34698 -1.66994,0.32021 -1.62043,0.2747 -1.64704,0.24148 -1.65238,0.20616 -1.64704,0.16866 -1.65289,0.13281 -1.65078,0.097 -1.62681,0.06 -1.650768,0.0252 -1.648111,-0.0107 -1.647581,-0.0471 -1.645443,-0.0825 -1.644387,-0.1178 -1.615105,-0.15046 -1.637993,-0.18901 -1.635334,-0.22383 -1.622033,-0.2581 -1.648104,-0.29825 -1.158899,6.47538 1.682711,0.30465 0.06863,0.0118 1.691231,0.26879 0.06918,0.0107 1.696557,0.2324 0.06918,0.008 1.700817,0.19599 0.06972,0.007 1.705068,0.15904 0.07026,0.005 1.708259,0.12261 0.07026,0.004 1.71145,0.0857 0.07026,0.003 1.714119,0.0488 0.07026,9.2e-4 1.716245,0.0118 0.07081,-5.3e-4 1.717307,-0.0257 0.07081,-0.002 1.718374,-0.0632 0.0709,-0.003 1.71891,-0.10064 0.0709,-0.004 1.71891,-0.13817 0.0709,-0.006 1.71837,-0.17616 0.0709,-0.008 1.71731,-0.21418 0.0704,-0.009 1.71574,-0.25165 0.0704,-0.0112 1.71358,-0.29024 0.0704,-0.0124 1.71093,-0.32877 0.0698,-0.014 1.70826,-0.3668 0.0693,-0.0155 1.70453,-0.40536 0.0693,-0.0172 1.70027,-0.44389 0.0687,-0.0189 1.69551,-0.48245 0.0687,-0.0204 1.69015,-0.52153 0.0677,-0.022 1.68486,-0.56011 0.0677,-0.0236 1.67791,-0.59917 0.0671,-0.0247 1.67154,-0.63881 0.0666,-0.0263 1.66408,-0.67789 0.0661,-0.0279 1.65662,-0.71753 0.065,-0.029 1.64811,-0.75715 0.0644,-0.0305 1.63958,-0.79678 z"
     id="path2623"
     inkscape:connector-curvature="0" />
  <path
     style="fill:#000000;fill-opacity:0;fill-rule:evenodd"
     inkscape:connector-curvature="0"
     id="path2617"
     d="M 0,-600 H 1000 V 200 H 0 Z" />
  <path
     style="fill:#000000;fill-opacity:0;fill-rule:evenodd"
     inkscape:connector-curvature="0"
     id="path2619"
     d="M 623.0058,112.668 C 495.03638,176.21774 343.7703,140.59177 251.60187,25.19547 159.43344,-90.20086 148.44374,-257.72167 224.61885,-386.11868 c 76.17511,-128.397 221.26553,-186.90974 356.24078,-143.66644 134.97522,43.2433 227.49884,177.88272 227.1734,330.58038 l -316.92523,-0.79514 z" />
  <path
     style="fill:#000000;fill-opacity:0;fill-rule:evenodd"
     inkscape:connector-curvature="0"
     id="path2621"
     d="M 623.0058,112.668 C 495.03638,176.21774 343.7703,140.59177 251.60187,25.19547 159.43344,-90.20086 148.44374,-257.72167 224.61885,-386.11868 c 76.17511,-128.397 221.26553,-186.90974 356.24078,-143.66644 134.97522,43.2433 227.49884,177.88272 227.1734,330.58038" />
  <path
     style="fill:#000000;fill-opacity:0;fill-rule:evenodd"
     inkscape:connector-curvature="0"
     id="path2625"
     d="M 870.5474,-184.7949 H 129.4537" />
</svg>
